PathFileType	4	(X/Y/Z)	14_2_37_p0_0-135_filt_butterworth.trc
DataRate	CameraRate	NumFrames	NumMarkers	Units	OrigDataRate	OrigDataStartFrame	OrigNumFrames
57.0	57.0	7	27	m	57.0	84	135
Frame#	Time	RHip			RKnee			RAnkle			RBigToe			RSmallToe			RHeel			LHip			LKnee			LAnkle			LBigToe			LSmallToe			LHeel			Neck			Head			Nose			RShoulder			RElbow			RWrist			RThumb			RIndex			RPinky			LShoulder			LElbow			LWrist			LThumb			LIndex			LPinky			
		X1	Y1	Z1	X2	Y2	Z2	X3	Y3	Z3	X4	Y4	Z4	X5	Y5	Z5	X6	Y6	Z6	X7	Y7	Z7	X8	Y8	Z8	X9	Y9	Z9	X10	Y10	Z10	X11	Y11	Z11	X12	Y12	Z12	X13	Y13	Z13	X14	Y14	Z14	X15	Y15	Z15	X16	Y16	Z16	X17	Y17	Z17	X18	Y18	Z18	X19	Y19	Z19	X20	Y20	Z20	X21	Y21	Z21	X22	Y22	Z22	X23	Y23	Z23	X24	Y24	Z24	X25	Y25	Z25	X26	Y26	Z26	X27	Y27	Z27	
84	1.4736842105263157	0.3195546019973105	0.6499421680081433	0.8811321099205338	0.3183033078304574	0.20111505643616764	0.8897209507256791	0.30611592015577777	-0.21629109196077378	0.8868600391301033	0.252485479035555	-0.18813344211582889	0.6501259184344776	0.3281868122710001	-0.20355598472486133	0.6870957827951507	0.29021711310981163	-0.3025413747874323	0.9667720446372818	0.08870021454382054	0.636813993115931	0.8968408403924213	0.10066065587509278	0.22488039664788773	0.8916132736928575	0.09428105629613948	-0.18797806648612592	0.8724881696041493	0.10298602179003931	-0.19611811274217486	0.6703432460326125	0.05428369003561317	-0.22263538804039681	0.7252295145325768	0.10821381705076	-0.2641554684261721	0.9229723986781612	0.1971056496632151	1.1288556238042338	0.8696561007152215	0.1927612438885552	1.3832190031485572	0.7647974889439811	0.18636863723427638	1.2526927604031788	0.6976145224182457	0.34724289243258133	1.06310996451043	0.8546444442309823	0.42229842631857495	0.7947543707254909	0.9082735117195386	0.4342902208081383	0.5944187683681398	0.7840354811305748	0.36533944388323303	0.4935163599608635	0.7641015945470713	0.38442219145335804	0.48843645809304426	0.7341021157496938	0.41098189995445933	0.4855675165312387	0.7602069227927395	0.043135385080821154	1.0636671070282304	0.8657416642986793	-0.021599186277732538	0.7791900058125366	0.8966824622409951	-0.005373241601523023	0.570379714715051	0.8076546511188669	0.04426309104827891	0.48544091013212476	0.7883273500543739	0.023280197780593495	0.45010626486633054	0.772099681697862	-0.01847458030705396	0.45301600857152124	0.8249372536975886	
85	1.4912280701754386	0.3191781101561859	0.6504316020974488	0.880140649572283	0.3183883926426415	0.20132114859218675	0.8893784270344176	0.30611064893624557	-0.21628615622400404	0.8868513649935984	0.2525897854081844	-0.18860728914096367	0.6505285054344367	0.32863614487131465	-0.2040289751604823	0.687872513807236	0.2902259145720664	-0.3024973650210709	0.9667684152756993	0.08867822558835431	0.6368379730272399	0.8968127838431708	0.10065411336256179	0.22502219215619476	0.8916349781556863	0.0943796396361169	-0.18797961373393823	0.872567958986205	0.1024924485960012	-0.19619116066181622	0.6701835132836891	0.05428520334943231	-0.22265372057392893	0.7252234745234013	0.10797885444514381	-0.26521518733168753	0.9244044631412178	0.1977732582607174	1.1281407235583192	0.8723205517322401	0.19271812404684782	1.3838768397632562	0.7648540799676387	0.1864639052603591	1.2526006351501133	0.6973386442776042	0.34672565409422895	1.0626084084815377	0.8545192024627024	0.42227048948857615	0.7947870658493252	0.9081866336909206	0.4349123373158658	0.5953246146557966	0.7816672249820289	0.36593741315674366	0.4933395120382253	0.7642406829699384	0.3858596668064789	0.4878502707955251	0.7339097453783747	0.41348179868540125	0.48558410607311026	0.7586455236808035	0.04312382527853521	1.0635685936095358	0.865706632742443	-0.021701448941683497	0.7791030975215139	0.8969654575520027	-0.0059796281501819214	0.5693810094929448	0.8093636446731132	0.044179614445885154	0.4846567237478904	0.7884556763098649	0.023401159776705455	0.45017758221888654	0.7720149520582738	-0.019592148905610382	0.4504445573305848	0.8322106204478917	
86	1.5087719298245614	0.31878245041894376	0.6510252184848027	0.8791166351652502	0.31839776340918163	0.20153722196707488	0.8888255338008066	0.3061051780599984	-0.2162817467970483	0.8868445983811745	0.2525337965777862	-0.1886579791395294	0.6503797531793541	0.3284675225442333	-0.20337153000753894	0.6870673737461159	0.29022638845489074	-0.30238343229826925	0.9667742354470118	0.08865661387594691	0.6368598208793995	0.896774848778894	0.10061780576451637	0.2250628647577136	0.8916360975125168	0.09442465199175501	-0.18786423444036937	0.872637480971006	0.10254434214314484	-0.19626875035929459	0.6701533684683443	0.05431000589993387	-0.22263541678771337	0.7252043180555361	0.1077355237314261	-0.2661275037352229	0.9256315815389425	0.1982395623880942	1.1274974526534005	0.8744436327134638	0.19270884010671308	1.3844339980573326	0.7648532177911864	0.1865691544001591	1.2524914156682563	0.6971186066452668	0.34599867261399897	1.062371539027919	0.8543356534906302	0.4221968990096996	0.7949548238002487	0.9080335376516337	0.43577939768934215	0.5954503159509887	0.7806957010770889	0.3668161376525354	0.4931280332937612	0.7644584267743813	0.38805710837605584	0.48709908332112706	0.7334791116584396	0.41693839173026626	0.48512287969296036	0.7580229990042865	0.043107275952429885	1.0634972707356993	0.8656806487339234	-0.02160841435023838	0.7791321005152743	0.8966843156194781	-0.006924710172735571	0.567965445664534	0.8120977552732523	0.04416153076021021	0.4839755447199854	0.7886143218864141	0.023367487599823253	0.4499815705970821	0.772509192900502	-0.020763498187152542	0.44715892006889135	0.8403386791601999	
87	1.5263157894736843	0.3183715267278714	0.6517109539614827	0.8780803222741767	0.3183463024010311	0.20175376461532935	0.8881079777344506	0.3060991300579555	-0.2162810807881156	0.8868412370965425	0.2521883460685775	-0.18800495365527375	0.6493846124012225	0.3277437927429797	-0.20178009307843195	0.6849293839322301	0.2902220419342887	-0.30227746571571695	0.9667985859211333	0.08863513223566388	0.6368820117472067	0.8967292516711292	0.10056062267205784	0.22493697238694238	0.8916267459748899	0.09443329281151852	-0.18769343269023087	0.872681681789982	0.10311752184096659	-0.19617882725237934	0.670289328509202	0.054356221493612994	-0.22258244013290868	0.7251858867088508	0.10750640931218616	-0.2669002136938563	0.9266462545777152	0.19848427405419056	1.127205817407275	0.8752743072258022	0.1927414158498188	1.3848278522407145	0.7646257012765517	0.18655757767954	1.2524574581704175	0.6974180415605988	0.3451314891225692	1.0625006466902707	0.8541339209621253	0.4220555708833889	0.7954466018298594	0.9078317726237328	0.4369830526176575	0.594621236185503	0.7817821524792459	0.36787283060484266	0.4929326978700657	0.7647324190514093	0.39071762803550963	0.48637867029417914	0.7328408471511354	0.4209946458001376	0.4842083337691061	0.7585823039479402	0.04308535628199617	1.063562307683432	0.8656983379424741	-0.021201170107099092	0.779420428435917	0.8955004220022409	-0.008339936120939345	0.5660920819489508	0.8163663124017022	0.04416146511427263	0.48354061731591724	0.7886911553769322	0.02299363087742501	0.44940954239393294	0.7738516854814933	-0.021991486780299482	0.4438456508215548	0.847915666987557	
88	1.543859649122807	0.31794919826932755	0.6524563095555153	0.8770441460236068	0.31828107876258266	0.2019777182866431	0.8873008175978129	0.306092356092676	-0.21628505935255782	0.8868413616886531	0.25155207517096495	-0.186686101438632	0.6476038594341641	0.3266993421809383	-0.1997292482374811	0.6821086775708289	0.29021632464558417	-0.3022392595312715	0.9668290638921293	0.08861374358810448	0.6369038822704673	0.8966775932110551	0.10049393086966546	0.224632641029621	0.891608095929014	0.09442875175786049	-0.18758065667760027	0.8726850297419744	0.10405317683214071	-0.19576559466414475	0.6705224061712425	0.054418452965231706	-0.2225083179540969	0.7251746283414753	0.10729576481735156	-0.26750388432051325	0.9274488226537484	0.19862156658337266	1.1275637530402929	0.8744392272883486	0.1928142769273524	1.3850056938849955	0.7641090527696822	0.18632016510415111	1.2527148421023124	0.6985741251937306	0.34422180644878675	1.0629323522097203	0.8539585493291357	0.4218389821660038	0.7964208944665401	0.9075450703901811	0.43847958540407467	0.5930828178157096	0.7849160602590788	0.369050337927635	0.4927249730958885	0.7649944821813364	0.39355074206142343	0.48581134954267113	0.7321320637483569	0.42539764951643233	0.48286060219519233	0.7606085029501577	0.04308841134194279	1.063800018732661	0.8657715956233089	-0.02049282143392525	0.7799864967763565	0.8934651392489759	-0.010202470162542412	0.5637695414505869	0.8221289763597296	0.044017225640951355	0.4831996542775485	0.788626556264437	0.022170821902345345	0.4485350835643852	0.7759154498894558	-0.02333934744387153	0.44114676244771245	0.8534872388298171	
89	1.5614035087719298	0.3175247165170497	0.6532261498495142	0.8760224832774273	0.3182394598308498	0.20220879047625148	0.8864410653161654	0.30608572563474534	-0.21629270143653223	0.8868442433208352	0.25073301800120296	-0.18489617073953504	0.6453107759429781	0.3256466162212764	-0.1977765700782052	0.679386932942302	0.29020977934815284	-0.30226433970594435	0.966852441444883	0.08859293454805166	0.6369207680876662	0.8966230436576519	0.10043168581423313	0.22415232847512115	0.8915750269145397	0.09442576105231262	-0.18756476369843988	0.8726595777093561	0.10506500901057164	-0.1949875034980918	0.6707300428047072	0.05448976058263644	-0.22242386442064802	0.725168196617651	0.1071175953046527	-0.26789111569750046	0.9279942755489876	0.19883377820087972	1.1287274058895762	0.8722956712468626	0.1929205510229799	1.384920395492128	0.7637378235710857	0.18582367100738983	1.2534846724908595	0.7005686977446748	0.34346017513365595	1.0635505288159188	0.8538549682178896	0.4215899858668496	0.7978492461347878	0.9070705045613057	0.44012765589575426	0.5913668178407383	0.7892569030207446	0.3703531965300226	0.4924129679128305	0.7651525383593489	0.39637112793413687	0.4854415409817243	0.7314819545936437	0.42993981698834016	0.4811310509303545	0.7640034583767232	0.04318257124609402	1.0641801066264998	0.8658927711979176	-0.019588674022386947	0.780816017584156	0.8908927128634692	-0.012293747180362786	0.5611176784134416	0.8286586762647511	0.043524341740073524	0.48261597407200474	0.7886324957862461	0.02093909261746336	0.44748708587602604	0.7783315788382944	-0.024893786397323224	0.4393703392252012	0.8562182946712418	
90	1.5789473684210529	0.3171108786377396	0.6539772647702871	0.8750335810607646	0.31823335418465265	0.2024734591825838	0.8854967229651725	0.30608057640120184	-0.21630279292771087	0.8868484271404687	0.24986927259536018	-0.1828695314178728	0.6428457082893709	0.3248353601350376	-0.19633164943380624	0.677352498126015	0.2902018530126523	-0.30230996046519243	0.966866149219893	0.0885733613700856	0.6369293358923644	0.896576184532328	0.1003884175385579	0.22348263625062328	0.8915294556330773	0.09442830058916168	-0.1876019831903436	0.8726333776692689	0.10583962551748718	-0.19391771523657728	0.6708210248240432	0.05456132119699697	-0.22233547803177434	0.7251668224133988	0.10700568787964283	-0.26809874925886934	0.9282632787813777	0.1992455580793902	1.130616876373616	0.8695907195235548	0.19303803619008392	1.3845802099711964	0.7643412869770321	0.18510647000709182	1.2548407260692753	0.7030970821599424	0.3430988177600187	1.0642716269683146	0.8538585891248196	0.42138696338461334	0.7995242801557123	0.9064250705888954	0.44176561534161507	0.5899635505628209	0.7936738058440094	0.37189393810807614	0.49194529927533215	0.7651450461477223	0.39903817907861006	0.4853724203846199	0.7309740659676796	0.43435677676077566	0.4792551397260136	0.7681330759372913	0.04338575132480751	1.0647636571689403	0.8660601880071523	-0.018629277931721568	0.7819255236399026	0.8881591277087003	-0.014355606664456132	0.558362412875203	0.83510705953906	0.04253683232163757	0.4814903913174381	0.7891263905434855	0.019473808232163284	0.4462941525460698	0.7807710749648524	-0.026705694006081804	0.4384126737617752	0.8564467014954547	
